<svg xmlns="http://www.w3.org/2000/svg" viewBox="0 0 56.7 56.7">
  <rect width="56.7" height="56.7" fill="#6C2C84"/>
  <path fill="#FFFFFF" d="M41.1,12V8.5h-9.6v19c-1-0.3-2.1-0.5-3.2-0.5c-1.3,0-2.4,0.2-3.5,0.5V12h5.4V8.5H15.6V12H21v17.6l0,0 c-0.2,0.2-0.5,0.4-0.7,0.6c-2.1,2.1-3.2,4.6-3.2,7.6s1,5.5,3.1,7.5s4.6,3.1,7.6,3.1s5.5-1.1,7.5-3.2c0.9-1,1.5-2,1.8-3.1 c0.4-1.2,0.6-2.6,0.6-4.1v-0.7h-9.7v2.9h6.2c-0.2,1.5-0.8,2.7-2.1,3.7c-1.2,1-2.6,1.3-4.2,1.3c-1.8,0-3.5-0.7-5.1-2.1 c-1.7-1.5-2.3-3.2-2.3-5.5s0.5-4.1,2-5.6c1.5-1.5,3.4-2,5.6-2c1.8,0,3.4,0.4,4.8,1.5l2-2.3v-9.1h4v-3h-4V12L41.1,12L41.1,12z"/>
</svg>
